<?xml version="1.0" encoding="UTF-8" standalone="no"?>
<!DOCTYPE svg PUBLIC "-//W3C//DTD SVG 1.1//EN"
 "http://www.w3.org/Graphics/SVG/1.1/DTD/svg11.dtd">
<!-- Generated by graphviz version 2.40.1 (20161225.0304)
 -->
<!-- Title: G Pages: 1 -->
<svg width="242pt" height="98pt"
 viewBox="0.00 0.00 242.00 98.00" xmlns="http://www.w3.org/2000/svg" xmlns:xlink="http://www.w3.org/1999/xlink">
<g id="graph0" class="graph" transform="scale(1 1) rotate(0) translate(4 94)">
<title>G</title>
<polygon fill="#ffffff" stroke="transparent" points="-4,4 -4,-94 238,-94 238,4 -4,4"/>
<!-- main -->
<g id="node1" class="node">
<title>main</title>
<polygon fill="none" stroke="#000000" points="54,-63 0,-63 0,-27 54,-27 54,-63"/>
<text text-anchor="middle" x="27" y="-40.8" font-family="Times,serif" font-size="14.00" fill="#000000">main</text>
</g>
<!-- f -->
<g id="node2" class="node">
<title>f</title>
<ellipse fill="none" stroke="#000000" cx="117" cy="-45" rx="27" ry="18"/>
<text text-anchor="middle" x="117" y="-40.8" font-family="Times,serif" font-size="14.00" fill="#000000">f</text>
</g>
<!-- main&#45;&gt;f -->
<g id="edge1" class="edge">
<title>main&#45;&gt;f</title>
<path fill="none" stroke="#000000" d="M54.003,-45C62.0277,-45 70.9665,-45 79.5309,-45"/>
<polygon fill="#000000" stroke="#000000" points="79.7051,-48.5001 89.705,-45 79.705,-41.5001 79.7051,-48.5001"/>
</g>
<!-- f&#45;&gt;f -->
<g id="edge3" class="edge">
<title>f&#45;&gt;f</title>
<path fill="none" stroke="#000000" stroke-dasharray="1,5" d="M101.7729,-60.1666C97.1587,-70.6641 102.2344,-81 117,-81 126.9207,-81 132.4671,-76.3342 133.6394,-70.0884"/>
<polygon fill="#000000" stroke="#000000" points="137.1015,-69.5736 132.2271,-60.1666 130.1713,-70.5601 137.1015,-69.5736"/>
</g>
<!-- g -->
<g id="node3" class="node">
<title>g</title>
<ellipse fill="none" stroke="#000000" cx="207" cy="-72" rx="27" ry="18"/>
<text text-anchor="middle" x="207" y="-67.8" font-family="Times,serif" font-size="14.00" fill="#000000">g</text>
</g>
<!-- f&#45;&gt;g -->
<g id="edge2" class="edge">
<title>f&#45;&gt;g</title>
<path fill="none" stroke="#000000" d="M142.07,-52.521C151.5102,-55.3531 162.4169,-58.6251 172.564,-61.6692"/>
<polygon fill="#000000" stroke="#000000" points="171.7915,-65.0915 182.3755,-64.6126 173.803,-58.3867 171.7915,-65.0915"/>
</g>
<!-- h -->
<g id="node4" class="node">
<title>h</title>
<ellipse fill="none" stroke="#000000" cx="207" cy="-18" rx="27" ry="18"/>
<text text-anchor="middle" x="207" y="-13.8" font-family="Times,serif" font-size="14.00" fill="#000000">h</text>
</g>
<!-- f&#45;&gt;h -->
<g id="edge4" class="edge">
<title>f&#45;&gt;h</title>
<path fill="none" stroke="#000000" d="M142.07,-37.479C151.5102,-34.6469 162.4169,-31.3749 172.564,-28.3308"/>
<polygon fill="#000000" stroke="#000000" points="173.803,-31.6133 182.3755,-25.3874 171.7915,-24.9085 173.803,-31.6133"/>
</g>
</g>
</svg>
