<?xml version="1.0" encoding="UTF-8" standalone="no"?>
<!DOCTYPE svg PUBLIC "-//W3C//DTD SVG 1.1//EN"
 "http://www.w3.org/Graphics/SVG/1.1/DTD/svg11.dtd">
<!-- Generated by graphviz version 2.40.1 (20161225.0304)
 -->
<!-- Title: G Pages: 1 -->
<svg width="178pt" height="190pt"
 viewBox="0.00 0.00 178.00 190.00" xmlns="http://www.w3.org/2000/svg" xmlns:xlink="http://www.w3.org/1999/xlink">
<g id="graph0" class="graph" transform="scale(1 1) rotate(0) translate(4 186)">
<title>G</title>
<polygon fill="#ffffff" stroke="transparent" points="-4,4 -4,-186 174,-186 174,4 -4,4"/>
<!-- main -->
<g id="node1" class="node">
<title>main</title>
<ellipse fill="none" stroke="#000000" cx="62" cy="-166" rx="16" ry="16"/>
<text text-anchor="middle" x="62" y="-162.4" font-family="ArialNarrow" font-size="12.00" fill="#000000">main</text>
</g>
<!-- fact -->
<g id="node2" class="node">
<title>fact</title>
<ellipse fill="none" stroke="#000000" cx="22" cy="-116" rx="16" ry="16"/>
<text text-anchor="middle" x="22" y="-112.4" font-family="ArialNarrow" font-size="12.00" fill="#000000">fact</text>
</g>
<!-- main&#45;&gt;fact -->
<g id="edge1" class="edge">
<title>main&#45;&gt;fact</title>
<path fill="none" stroke="#000000" d="M51.9063,-153.3829C46.9231,-147.1539 40.8423,-139.5529 35.4682,-132.8353"/>
<polygon fill="#000000" stroke="#000000" points="36.7196,-131.5981 32.2296,-128.787 33.9866,-133.7846 36.7196,-131.5981"/>
</g>
<!-- a -->
<g id="node3" class="node">
<title>a</title>
<ellipse fill="none" stroke="#000000" cx="103" cy="-116" rx="16" ry="16"/>
<text text-anchor="middle" x="103" y="-112.4" font-family="ArialNarrow" font-size="12.00" fill="#000000">a</text>
</g>
<!-- main&#45;&gt;a -->
<g id="edge2" class="edge">
<title>main&#45;&gt;a</title>
<path fill="none" stroke="#000000" d="M72.346,-153.3829C77.5324,-147.0581 83.8787,-139.3187 89.4488,-132.5259"/>
<polygon fill="#000000" stroke="#000000" points="90.9821,-133.4159 92.7993,-128.4399 88.2756,-131.1966 90.9821,-133.4159"/>
</g>
<!-- fact&#45;&gt;fact -->
<g id="edge4" class="edge">
<title>fact&#45;&gt;fact</title>
<path fill="none" stroke="#000000" d="M35.9699,-124.3656C46.0045,-127.0893 56,-124.3008 56,-116 56,-109.1259 49.1452,-106.0321 41.09,-106.7185"/>
<polygon fill="#000000" stroke="#000000" points="40.5836,-105.0312 35.9699,-107.6344 41.2,-108.4765 40.5836,-105.0312"/>
</g>
<!-- print -->
<g id="node8" class="node">
<title>print</title>
<ellipse fill="none" stroke="#000000" cx="16" cy="-66" rx="16" ry="16"/>
<text text-anchor="middle" x="16" y="-62.4" font-family="ArialNarrow" font-size="12.00" fill="#000000">print</text>
</g>
<!-- fact&#45;&gt;print -->
<g id="edge3" class="edge">
<title>fact&#45;&gt;print</title>
<path fill="none" stroke="#000000" d="M20.0685,-99.9045C19.5868,-95.8899 19.0628,-91.5229 18.556,-87.3"/>
<polygon fill="#000000" stroke="#000000" points="20.2612,-86.8212 17.9278,-82.0654 16.7861,-87.2383 20.2612,-86.8212"/>
</g>
<!-- b -->
<g id="node4" class="node">
<title>b</title>
<ellipse fill="none" stroke="#000000" cx="66" cy="-66" rx="16" ry="16"/>
<text text-anchor="middle" x="66" y="-62.4" font-family="ArialNarrow" font-size="12.00" fill="#000000">b</text>
</g>
<!-- a&#45;&gt;b -->
<g id="edge5" class="edge">
<title>a&#45;&gt;b</title>
<path fill="none" stroke="#000000" d="M93.4716,-103.1238C89.0179,-97.1053 83.649,-89.85 78.8434,-83.356"/>
<polygon fill="#000000" stroke="#000000" points="80.0057,-81.9846 75.6247,-79.0064 77.1922,-84.0666 80.0057,-81.9846"/>
</g>
<!-- c -->
<g id="node5" class="node">
<title>c</title>
<ellipse fill="none" stroke="#000000" cx="66" cy="-16" rx="16" ry="16"/>
<text text-anchor="middle" x="66" y="-12.4" font-family="ArialNarrow" font-size="12.00" fill="#000000">c</text>
</g>
<!-- a&#45;&gt;c -->
<g id="edge6" class="edge">
<title>a&#45;&gt;c</title>
<path fill="none" stroke="#000000" d="M102.1126,-99.9493C100.8847,-86.2102 97.9604,-66.1496 91,-50 88.2732,-43.6732 84.1766,-37.407 80.0845,-32.0106"/>
<polygon fill="#000000" stroke="#000000" points="81.4471,-30.9123 76.9788,-28.0667 78.6973,-33.0777 81.4471,-30.9123"/>
</g>
<!-- d -->
<g id="node6" class="node">
<title>d</title>
<ellipse fill="none" stroke="#000000" cx="154" cy="-66" rx="16" ry="16"/>
<text text-anchor="middle" x="154" y="-62.4" font-family="ArialNarrow" font-size="12.00" fill="#000000">d</text>
</g>
<!-- a&#45;&gt;d -->
<g id="edge7" class="edge">
<title>a&#45;&gt;d</title>
<path fill="none" stroke="#000000" d="M114.5727,-104.6542C121.7454,-97.6221 131.0389,-88.5109 138.8014,-80.9006"/>
<polygon fill="#000000" stroke="#000000" points="140.1279,-82.0509 142.4731,-77.3009 137.6776,-79.5516 140.1279,-82.0509"/>
</g>
<!-- b&#45;&gt;c -->
<g id="edge8" class="edge">
<title>b&#45;&gt;c</title>
<path fill="none" stroke="#000000" d="M59.7547,-50.9984C59.2602,-46.351 59.1291,-41.1517 59.3613,-36.2115"/>
<polygon fill="#000000" stroke="#000000" points="61.124,-36.1088 59.7558,-30.9911 57.6339,-35.8449 61.124,-36.1088"/>
</g>
<!-- c&#45;&gt;b -->
<g id="edge9" class="edge">
<title>c&#45;&gt;b</title>
<path fill="none" stroke="#000000" d="M72.2442,-30.9911C72.7392,-35.6376 72.8709,-40.8367 72.6392,-45.7772"/>
<polygon fill="#000000" stroke="#000000" points="70.8765,-45.8808 72.2453,-50.9984 74.3666,-46.1442 70.8765,-45.8808"/>
</g>
<!-- e -->
<g id="node7" class="node">
<title>e</title>
<ellipse fill="none" stroke="#000000" cx="112" cy="-166" rx="16" ry="16"/>
<text text-anchor="middle" x="112" y="-162.4" font-family="ArialNarrow" font-size="12.00" fill="#000000">e</text>
</g>
</g>
</svg>
